<svg width="25" height="25" viewBox="0 0 25 25" fill="none" xmlns="http://www.w3.org/2000/svg">
<path d="M12.5248 0H12.4679C5.58205 0 0 5.5837 0 12.4715V12.5285C0 19.4163 5.58205 25 12.4679 25H12.5248C19.4106 25 24.9926 19.4163 24.9926 12.5285V12.4715C24.9926 5.5837 19.4106 0 12.5248 0Z" fill="#383D38"/>
<path d="M16.3635 5.08618H8.63008C6.49359 5.08618 4.75549 6.82479 4.75549 8.96191V16.039C4.75549 18.1761 6.49359 19.9147 8.63008 19.9147H16.3635C18.5 19.9147 20.2381 18.1761 20.2381 16.039V8.96191C20.2381 6.82479 18.5 5.08618 16.3635 5.08618ZM6.12233 8.96191C6.12233 7.57891 7.24749 6.45342 8.63008 6.45342H16.3635C17.7461 6.45342 18.8713 7.57891 18.8713 8.96191V16.039C18.8713 17.422 17.7461 18.5475 16.3635 18.5475H8.63008C7.24749 18.5475 6.12233 17.422 6.12233 16.039V8.96191Z" fill="white"/>
<path d="M12.4967 16.1046C14.4835 16.1046 16.1008 14.4878 16.1008 12.4996C16.1008 10.5113 14.4844 8.89447 12.4967 8.89447C10.5091 8.89447 8.8927 10.5113 8.8927 12.4996C8.8927 14.4878 10.5091 16.1046 12.4967 16.1046ZM12.4967 10.2626C13.7305 10.2626 14.7339 11.2663 14.7339 12.5004C14.7339 13.7345 13.7305 14.7383 12.4967 14.7383C11.263 14.7383 10.2595 13.7345 10.2595 12.5004C10.2595 11.2663 11.263 10.2626 12.4967 10.2626Z" fill="white"/>
<path d="M16.4344 9.47693C16.9694 9.47693 17.4055 9.04162 17.4055 8.50558C17.4055 7.96955 16.9703 7.53424 16.4344 7.53424C15.8986 7.53424 15.4634 7.96955 15.4634 8.50558C15.4634 9.04162 15.8986 9.47693 16.4344 9.47693Z" fill="white"/>
</svg>
